inDegrees=yes
name=ik_S51_A06_T03
DataType=double
version=3
OpenSimVersion=4.3-2021-08-27-4bc7ad9
endheader
time	pelvis_tilt	pelvis_list	pelvis_rotation	pelvis_tx	pelvis_ty	pelvis_tz	hip_flexion_r	hip_adduction_r	hip_rotation_r	knee_angle_r	knee_angle_r_beta	ankle_angle_r	subtalar_angle_r	mtp_angle_r	hip_flexion_l	hip_adduction_l	hip_rotation_l	knee_angle_l	knee_angle_l_beta	ankle_angle_l	subtalar_angle_l	mtp_angle_l	lumbar_extension	lumbar_bending	lumbar_rotation	arm_flex_r	arm_add_r	arm_rot_r	elbow_flex_r	pro_sup_r	wrist_flex_r	wrist_dev_r	arm_flex_l	arm_add_l	arm_rot_l	elbow_flex_l	pro_sup_l	wrist_flex_l	wrist_dev_l
23.57999999999959	-4.135785639099769	-0.1715349494140189	30.90363912054702	0	0.9399999999999999	0	42.90740908798571	-10.27358591789296	-10.26838613834903	54.37049476236641	0.9489441495416259	0	0	0	42.90740908798571	-10.27358591789296	-10.26838613834903	54.37049476236641	0.9489441495416259	0	0	0	-2.69574917581846	0.483939470696769	-1.356715471474252	23.43972153247103	-23.77511260662314	-11.77492617550856	61.04134147737179	127.0233775511923	0	0	62.22990511727374	-17.52692325976479	-18.4090315563051	39.69137554339522	122.6201749380569	0	0
23.59999999999959	-4.133272237600313	-0.1896695570296289	30.93983278106737	0	0.9399999999999999	0	42.90812349604091	-10.27326050389872	-10.26818124335827	54.37063882655143	0.9489466639359887	0	0	0	42.90812349604091	-10.27326050389872	-10.26818124335827	54.37063882655143	0.9489466639359887	0	0	0	-2.703123062632729	0.4670903070057478	-1.349146738431828	23.33973453931176	-23.82902489905946	-11.82534477865854	61.17011472829483	126.9283085036818	0	0	62.25401414641274	-17.55161316991523	-18.39386617254663	39.56381810037411	122.565816639191	0	0
23.61999999999959	-4.136499107604395	-0.2075869263978248	31.04340264372822	0	0.9399999999999999	0	42.90889387965312	-10.27290895930498	-10.2679600030203	54.3707938186787	0.9489493690589241	0	0	0	42.90889387965312	-10.27290895930498	-10.2679600030203	54.3707938186787	0.9489493690589241	0	0	0	-2.715786035170562	0.4586362682211612	-1.446362752444769	23.27727129232942	-23.86003025403758	-11.79302377918404	61.27284712432807	126.8630411268346	0	0	61.61053008036315	-18.09752261002125	-19.06536515242729	39.97722478386477	122.5736336850563	0	0
23.63999999999958	-4.139921891604081	-0.2361410676323411	31.1093063875392	0	0.9399999999999999	0	42.90984785066884	-10.27247376620635	-10.26768604566087	54.37098563751384	0.9489527169291646	0	0	0	42.90984785066884	-10.27247376620635	-10.26768604566087	54.37098563751384	0.9489527169291646	0	0	0	-2.733802805957414	0.4370574084519494	-1.459321164688581	23.27702758342149	-23.8370711697368	-11.86404326979063	61.2819989896518	126.8487828024884	0	0	61.35456742073892	-18.24643403229933	-19.21573491266265	40.32789071186097	122.5335824185254	0	0
23.65999999999958	-4.142931989881953	-0.2701905359742318	31.16581673144374	0	0.9399999999999999	0	42.9104265276626	-10.27221016258061	-10.26751999944923	54.37110207170072	0.9489547490890876	0	0	0	42.9104265276626	-10.27221016258061	-10.26751999944923	54.37110207170072	0.9489547490890876	0	0	0	-2.754247140509587	0.4104507483498893	-1.472652894343881	23.23990549936124	-23.84141015163604	-11.83623243045672	61.35895043659885	126.8215621006365	0	0	61.14942997534621	-18.43091388929003	-19.36608498423126	40.37075916353935	122.4722728384753	0	0
23.67999999999958	-4.145376388751187	-0.3215253113208484	31.23321015205503	0	0.9399999999999999	0	42.91098141014427	-10.27195806859844	-10.26736104237424	54.37121393622054	0.9489567014932746	0	0	0	42.91098141014427	-10.27195806859844	-10.26736104237424	54.37121393622054	0.9489567014932746	0	0	0	-2.783285310865763	0.3696079618368486	-1.502720594634252	23.22714775220186	-23.7756559204625	-11.82625418627051	61.42472868305531	126.7878775741984	0	0	60.77650968055865	-18.62281873257822	-19.57104766494052	40.761086426606	122.4869585697089	0	0
23.69999999999958	-4.15375993519348	-0.3256451177926472	31.27514031172883	0	0.9399999999999999	0	42.91144010743169	-10.27175006271377	-10.26722978875232	54.37130652753527	0.9489583175165753	0	0	0	42.91144010743169	-10.27175006271377	-10.26722978875232	54.37130652753527	0.9489583175165753	0	0	0	-2.792801734920964	0.3713148617520661	-1.514532276504053	23.22579642388389	-23.80417751169515	-11.79736811044559	61.47659877895865	126.8003788558219	0	0	60.56776380673083	-18.679817041722	-19.73520517453685	40.68881814060901	122.4525260281449	0	0
23.71999999999958	-4.150033203924884	-0.3326092988092166	31.2947736934577	0	0.9399999999999999	0	42.91198827458476	-10.27150197899266	-10.26707312140321	54.37141732096408	0.9489602512266977	0	0	0	42.91198827458476	-10.27150197899266	-10.26707312140321	54.37141732096408	0.9489602512266977	0	0	0	-2.793553405490148	0.3655903897684946	-1.551211213159669	23.23532024923382	-23.79382693560448	-11.75617889985494	61.52343451555968	126.8090341585223	0	0	60.38164062393481	-18.76151997147826	-19.94926633024589	40.67898436614929	122.1899952367433	0	0
23.73999999999958	-4.157373159276311	-0.3576327849252587	31.31561428904844	0	0.9399999999999999	0	42.91218118883405	-10.27141777408922	-10.26701928734381	54.37145763746275	0.9489609548823424	0	0	0	42.91218118883405	-10.27141777408922	-10.26701928734381	54.37145763746275	0.9489609548823424	0	0	0	-2.812847092491691	0.3480752037726154	-1.550781051753906	23.28048245713807	-23.73646119746985	-11.80870147302056	61.52734509504241	126.8061399776542	0	0	60.31220809402519	-18.70265121471911	-20.04974519363104	40.71465908355007	122.0964718898406	0	0
23.75999999999958	-4.163419583343263	-0.3671359252884661	31.2723592206645	0	0.9399999999999999	0	42.91313771157242	-10.27098498189833	-10.26674590356196	54.3716508345798	0.9489643268081404	0	0	0	42.91313771157242	-10.27098498189833	-10.26674590356196	54.3716508345798	0.9489643268081404	0	0	0	-2.823266817371656	0.3432153536248428	-1.542094034455987	23.32527970197062	-23.68078999356052	-11.80031035471996	61.49269490962493	126.8855749800299	0	0	60.0788065989644	-18.69969139701066	-20.00853769504178	41.0583308758684	121.8535163195393	0	0
23.77999999999958	-4.159064570710284	-0.3806436388290108	31.28441042897888	0	0.9399999999999999	0	42.91366321140228	-10.27075067064307	-10.266597132331	54.3717583482702	0.9489662032760287	0	0	0	42.91366321140228	-10.27075067064307	-10.266597132331	54.3717583482702	0.9489662032760287	0	0	0	-2.827033844062715	0.3328428470958023	-1.601163182236953	23.3592198104854	-23.59932818883473	-11.77219294220785	61.47449485174455	126.903345921625	0	0	59.93366617942681	-18.83000824592395	-20.13695890262894	41.19955003668797	122.2442958108062	0	0
23.79999999999958	-4.165238031129704	-0.3818108680720924	31.31861813601486	0	0.9399999999999999	0	42.91420410127781	-10.27050799585228	-10.26644336363046	54.37186833234048	0.9489681228601798	0	0	0	42.91420410127781	-10.27050799585228	-10.26644336363046	54.37186833234048	0.9489681228601798	0	0	0	-2.833417892365788	0.3382986665528071	-1.65721401525149	23.39829125642324	-23.54734297178575	-11.7534767477943	61.44394251648473	126.9377004270651	0	0	59.81823271407049	-18.83041892284181	-20.54144352773562	41.2799713135179	122.7165444118121	0	0
23.81999999999958	-4.170595212411559	-0.3866612604667207	31.28712391492742	0	0.9399999999999999	0	42.91505009334043	-10.27013020703678	-10.2662035868026	54.37204106152563	0.948971137553175	0	0	0	42.91505009334043	-10.27013020703678	-10.2662035868026	54.37204106152563	0.948971137553175	0	0	0	-2.840918952603825	0.3383879361786987	-1.676484117858393	23.44529893385363	-23.50833450159603	-11.72590850893578	61.40275032531471	126.9574670841297	0	0	59.71994663696119	-18.75831187116971	-20.8177177780403	41.25035119521047	123.1625679374297	0	0
23.83999999999958	-4.180341259624051	-0.393447290521329	31.24083587296781	0	0.9399999999999999	0	42.91524916319665	-10.27004164299349	-10.26614729690771	54.37208181994232	0.9489718489217441	0	0	0	42.91524916319665	-10.27004164299349	-10.26614729690771	54.37208181994232	0.9489718489217441	0	0	0	-2.852841156069092	0.337767251394639	-1.676398868547333	23.50513366936351	-23.4953883200886	-11.71738439728846	61.41050769625932	126.9747471729353	0	0	59.5713894115332	-18.73036797508421	-20.74428735988514	41.28987321537573	123.1683471572562	0	0
